<svg xmlns="http://www.w3.org/2000/svg" viewBox="0 0 200 200" fill="none">
  <defs>
    <linearGradient id="kreyoGradient" x1="100" y1="0" x2="100" y2="200" gradientUnits="userSpaceOnUse">
      <stop offset="0%" stop-color="#FF8C42"/>
      <stop offset="35%" stop-color="#FF7B6B"/>
      <stop offset="65%" stop-color="#A78BCA"/>
      <stop offset="100%" stop-color="#5B6FE8"/>
    </linearGradient>
  </defs>
  
  <!-- K Shape - Outline Only -->
  <path d="M 50 50 
           L 50 170
           C 50 180, 55 190, 70 190
           L 80 190
           C 85 190, 85 190, 85 185
           L 85 145
           L 115 175
           C 118 178, 122 180, 130 180
           L 145 180
           C 152 180, 158 178, 162 172
           C 164 169, 165 166, 163 162
           L 118 115
           L 163 68
           C 165 64, 164 61, 162 58
           C 158 52, 152 50, 145 50
           L 130 50
           C 122 50, 118 52, 115 55
           L 85 85
           L 85 50
           Z" 
        fill="none"
        stroke="url(#kreyoGradient)" 
        stroke-width="18"
        stroke-linecap="round"
        stroke-linejoin="round"/>
</svg>
